<svg width="25" height="24" viewBox="0 0 25 24" fill="none" xmlns="http://www.w3.org/2000/svg">
<path d="M22.2723 18.7033C21.906 19.5418 21.4725 20.3136 20.9702 21.0232C20.2855 21.9906 19.7249 22.6602 19.2928 23.032C18.6231 23.6424 17.9055 23.955 17.1371 23.9728C16.5855 23.9728 15.9202 23.8172 15.1459 23.5017C14.3689 23.1876 13.6549 23.032 13.0021 23.032C12.3174 23.032 11.5831 23.1876 10.7977 23.5017C10.011 23.8172 9.37732 23.9816 8.8928 23.9979C8.15595 24.0291 7.42148 23.7076 6.68836 23.032C6.22044 22.6276 5.63517 21.9343 4.93404 20.9521C4.18179 19.9033 3.56333 18.687 3.07882 17.3004C2.55992 15.8026 2.2998 14.3523 2.2998 12.9482C2.2998 11.3398 2.65052 9.95259 3.35299 8.79011C3.90508 7.85636 4.63954 7.11979 5.55878 6.57906C6.47802 6.03834 7.47126 5.76279 8.5409 5.74516C9.12617 5.74516 9.89367 5.92456 10.8474 6.27715C11.7985 6.63091 12.4092 6.81032 12.677 6.81032C12.8771 6.81032 13.5555 6.60054 14.7056 6.18233C15.7932 5.79449 16.7111 5.63391 17.463 5.69716C19.5006 5.86012 21.0315 6.6561 22.0495 8.09013C20.2272 9.18432 19.3257 10.7169 19.3437 12.6829C19.3601 14.2142 19.9207 15.4886 21.0225 16.5004C21.5218 16.97 22.0794 17.333 22.6998 17.5907C22.5653 17.9774 22.4232 18.3477 22.2723 18.7033ZM17.5991 0.480137C17.5991 1.68041 17.1566 2.8011 16.2745 3.8384C15.2101 5.07155 13.9227 5.78412 12.5266 5.67168C12.5088 5.52769 12.4985 5.37614 12.4985 5.21688C12.4985 4.06462 13.0046 2.83147 13.9036 1.82321C14.3523 1.3127 14.9231 0.888228 15.6153 0.549615C16.3059 0.216055 16.9592 0.031589 17.5736 0C17.5916 0.160458 17.5991 0.320926 17.5991 0.480121V0.480137Z" fill="#F1F4F7"/>
</svg>
