<svg width="7" height="11" viewBox="0 0 7 11" fill="none" xmlns="http://www.w3.org/2000/svg">
<path d="M4.94665 5.49999L0.873576 1.42689C0.735109 1.28844 0.664276 1.1144 0.661076 0.904787C0.657859 0.695187 0.728692 0.517953 0.873576 0.373087C1.01844 0.228203 1.19408 0.155762 1.40048 0.155762C1.60688 0.155762 1.78251 0.228203 1.92738 0.373087L6.4216 4.86731C6.5152 4.96089 6.58123 5.05961 6.61968 5.16346C6.65814 5.26729 6.67738 5.37947 6.67738 5.49999C6.67738 5.6205 6.65814 5.73268 6.61968 5.83651C6.58123 5.94036 6.5152 6.03908 6.4216 6.13266L1.92738 10.6269C1.78893 10.7654 1.61489 10.8362 1.40527 10.8394C1.19568 10.8426 1.01844 10.7718 0.873576 10.6269C0.728692 10.482 0.65625 10.3064 0.65625 10.1C0.65625 9.89359 0.728692 9.71795 0.873576 9.57309L4.94665 5.49999Z" fill="#7C4DFF"/>
</svg>
