<svg width="18" height="16" viewBox="0 0 18 16" fill="none" xmlns="http://www.w3.org/2000/svg">
<path d="M5.77084 9.55443C5.97509 9.55443 6.14639 9.48535 6.28474 9.34718C6.42309 9.20902 6.49226 9.03781 6.49226 8.83356C6.49226 8.62932 6.42318 8.45803 6.28501 8.31966C6.14684 8.18132 5.97564 8.11214 5.77141 8.11214C5.56716 8.11214 5.39586 8.18123 5.25751 8.31939C5.11915 8.45756 5.04997 8.62877 5.04997 8.83302C5.04997 9.03725 5.11905 9.20855 5.25722 9.34691C5.39539 9.48526 5.56659 9.55443 5.77084 9.55443ZM9.00001 9.55443C9.20425 9.55443 9.37554 9.48535 9.5139 9.34718C9.65225 9.20902 9.72143 9.03781 9.72143 8.83356C9.72143 8.62932 9.65234 8.45803 9.51418 8.31966C9.37601 8.18132 9.2048 8.11214 9.00055 8.11214C8.79632 8.11214 8.62502 8.18123 8.48666 8.31939C8.34831 8.45756 8.27913 8.62877 8.27913 8.83302C8.27913 9.03725 8.34822 9.20855 8.48638 9.34691C8.62455 9.48526 8.79576 9.55443 9.00001 9.55443ZM12.2292 9.55443C12.4334 9.55443 12.6047 9.48535 12.7431 9.34718C12.8814 9.20902 12.9506 9.03781 12.9506 8.83356C12.9506 8.62932 12.8815 8.45803 12.7433 8.31966C12.6052 8.18132 12.434 8.11214 12.2297 8.11214C12.0255 8.11214 11.8542 8.18123 11.7158 8.31939C11.5775 8.45756 11.5083 8.62877 11.5083 8.83302C11.5083 9.03725 11.5774 9.20855 11.7156 9.34691C11.8537 9.48526 12.0249 9.55443 12.2292 9.55443ZM9.00074 15.9166C8.01753 15.9166 7.09644 15.7307 6.23747 15.3589C5.3785 14.9871 4.62957 14.4818 3.99068 13.8429C3.3518 13.204 2.84647 12.4552 2.47468 11.5966C2.10287 10.7379 1.91697 9.81696 1.91697 8.83375C1.91697 7.85054 2.10287 6.92945 2.47468 6.07048C2.84647 5.2115 3.3518 4.46257 3.99068 3.82368C4.62957 3.18481 5.37834 2.67948 6.23701 2.30768C7.09568 1.93588 8.01661 1.74998 8.99982 1.74998C9.98303 1.74998 10.9041 1.93588 11.7631 2.30768C12.6221 2.67948 13.371 3.18481 14.0099 3.82368C14.6488 4.46257 15.1541 5.21135 15.5259 6.07002C15.8977 6.92868 16.0836 7.84962 16.0836 8.83283C16.0836 9.81604 15.8977 10.7371 15.5259 11.5961C15.1541 12.4551 14.6488 13.204 14.0099 13.8429C13.371 14.4818 12.6222 14.9871 11.7636 15.3589C10.9049 15.7307 9.98395 15.9166 9.00074 15.9166ZM1.01311 4.06727C0.892392 3.94655 0.832031 3.80018 0.832031 3.62816C0.832031 3.45616 0.892392 3.3098 1.01311 3.18908L3.35607 0.846123C3.47145 0.730748 3.61648 0.671726 3.79116 0.66906C3.96584 0.666379 4.11354 0.725401 4.23426 0.846123C4.35498 0.966859 4.41534 1.11323 4.41534 1.28523C4.41534 1.45723 4.35498 1.60359 4.23426 1.72431L1.8913 4.06727C1.77593 4.18264 1.6309 4.24167 1.45622 4.24435C1.28155 4.24702 1.13385 4.18799 1.01311 4.06727ZM16.9874 4.06727C16.8667 4.18799 16.7203 4.24835 16.5483 4.24835C16.3763 4.24835 16.23 4.18799 16.1093 4.06727L13.7663 1.72431C13.6509 1.60893 13.5919 1.46391 13.5892 1.28923C13.5866 1.11456 13.6456 0.966859 13.7663 0.846123C13.887 0.725401 14.0334 0.665039 14.2054 0.665039C14.3774 0.665039 14.5238 0.725401 14.6445 0.846123L16.9874 3.18908C17.1028 3.30446 17.1618 3.44948 17.1645 3.62416C17.1672 3.79884 17.1082 3.94655 16.9874 4.06727ZM9.00028 14.6666C10.6199 14.6666 11.9971 14.0993 13.1317 12.9647C14.2663 11.8301 14.8336 10.4529 14.8336 8.83329C14.8336 7.21364 14.2663 5.8365 13.1317 4.70187C11.9971 3.56726 10.6199 2.99996 9.00028 2.99996C7.38063 2.99996 6.00349 3.56726 4.86886 4.70187C3.73425 5.8365 3.16695 7.21364 3.16695 8.83329C3.16695 10.4529 3.73425 11.8301 4.86886 12.9647C6.00349 14.0993 7.38063 14.6666 9.00028 14.6666Z" fill="#9C9BC2"/>
</svg>
