<svg width="25" height="24" viewBox="0 0 25 24" fill="none" xmlns="http://www.w3.org/2000/svg">
<g clip-path="url(#clip0_121_12488)">
<path fill-rule="evenodd" clip-rule="evenodd" d="M24.02 12.2729C24.02 11.422 23.9436 10.6038 23.8018 9.81836H12.5V14.4602H18.9582C18.68 15.9602 17.8345 17.2311 16.5636 18.082V21.0929H20.4418C22.7109 19.0038 24.02 15.9274 24.02 12.2729Z" fill="#4285F4"/>
<path fill-rule="evenodd" clip-rule="evenodd" d="M12.5 23.9998C15.74 23.9998 18.4564 22.9252 20.4418 21.0925L16.5636 18.0816C15.4891 18.8016 14.1145 19.2271 12.5 19.2271C9.37455 19.2271 6.72909 17.1161 5.78546 14.2798H1.77637V17.3889C3.75091 21.3107 7.80909 23.9998 12.5 23.9998Z" fill="#34A853"/>
<path fill-rule="evenodd" clip-rule="evenodd" d="M5.78545 14.2799C5.54545 13.5599 5.40909 12.7908 5.40909 11.9999C5.40909 11.209 5.54545 10.4399 5.78545 9.71993V6.61084H1.77636C0.963636 8.23084 0.5 10.0636 0.5 11.9999C0.5 13.9363 0.963636 15.769 1.77636 17.389L5.78545 14.2799Z" fill="#FBBC05"/>
<path fill-rule="evenodd" clip-rule="evenodd" d="M12.5 4.77273C14.2618 4.77273 15.8436 5.37818 17.0873 6.56727L20.5291 3.12545C18.4509 1.18909 15.7345 0 12.5 0C7.80909 0 3.75091 2.68909 1.77637 6.61091L5.78546 9.72C6.72909 6.88364 9.37455 4.77273 12.5 4.77273Z" fill="#EA4335"/>
</g>
<defs>
<clipPath id="clip0_121_12488">
<rect x="0.5" width="24" height="24" rx="6" fill="white"/>
</clipPath>
</defs>
</svg>
