<svg width="24" height="24" viewBox="0 0 24 24" fill="white" xmlns="http://www.w3.org/2000/svg">
<path d="M13.6193 4.32306L13.6197 4.32335L18.7983 7.95067C18.7984 7.9507 18.7984 7.95073 18.7985 7.95077C19.1718 8.21242 19.5424 8.65579 19.8203 9.18868C20.0982 9.72159 20.25 10.28 20.25 10.7388V16.8415C20.25 18.7234 18.7239 20.25 16.8461 20.25H7.15385C5.27825 20.25 3.75 18.7165 3.75 16.8325V10.6218C3.75 10.1979 3.88699 9.66816 4.14054 9.15263C4.3939 8.63749 4.73173 8.20151 5.07099 7.9366L5.07115 7.93647L9.57359 4.41867C9.57391 4.41842 9.57423 4.41817 9.57456 4.41792C10.6723 3.56716 12.4774 3.52214 13.6193 4.32306ZM12 18.8247C12.7836 18.8247 13.4243 18.1821 13.4243 17.3996V14.6993C13.4243 13.9168 12.7836 13.2742 12 13.2742C11.2164 13.2742 10.5757 13.9168 10.5757 14.6993V17.3996C10.5757 18.1821 11.2164 18.8247 12 18.8247Z" stroke="white" stroke-width="1.5"/>
</svg>
