<svg width="55" height="16" viewBox="0 0 55 16" fill="none" xmlns="http://www.w3.org/2000/svg">
<path d="M0.66 15V0.999999H9.97V3.46H3.25V6.54H7.55V9H3.25V15H0.66ZM12.1444 15V1.69L14.6444 0.559999V15H12.1444ZM22.0747 15.24C21.0947 15.24 20.248 15.02 19.5347 14.58C18.828 14.14 18.2814 13.52 17.8947 12.72C17.5147 11.9133 17.3247 10.9667 17.3247 9.88C17.3247 8.78 17.518 7.83 17.9047 7.03C18.298 6.23 18.848 5.61667 19.5547 5.19C20.268 4.75667 21.108 4.54 22.0747 4.54C22.9014 4.54 23.6514 4.71333 24.3247 5.06C24.998 5.40667 25.5347 5.94 25.9347 6.66C26.3347 7.37333 26.5347 8.28333 26.5347 9.39C26.5347 9.56333 26.528 9.77667 26.5147 10.03C26.508 10.2767 26.4914 10.5267 26.4647 10.78H19.7947C19.8214 11.2467 19.928 11.6567 20.1147 12.01C20.308 12.3567 20.5714 12.6267 20.9047 12.82C21.238 13.0133 21.6314 13.11 22.0847 13.11C22.5714 13.11 22.9947 13.03 23.3547 12.87C23.7147 12.7033 24.0547 12.44 24.3747 12.08L25.8147 13.57C25.3747 14.07 24.8447 14.4733 24.2247 14.78C23.6047 15.0867 22.888 15.24 22.0747 15.24ZM19.8047 8.83H24.1147C24.0814 8.38333 23.9814 8 23.8147 7.68C23.648 7.35333 23.4147 7.10333 23.1147 6.93C22.8147 6.75667 22.4514 6.67 22.0247 6.67C21.438 6.67 20.938 6.85 20.5247 7.21C20.1114 7.57 19.8714 8.11 19.8047 8.83ZM50.3245 15.24C48.8845 15.24 47.7479 14.7633 46.9145 13.81C46.0812 12.8567 45.6645 11.5533 45.6645 9.9C45.6645 8.80667 45.8545 7.86 46.2345 7.06C46.6145 6.25333 47.1512 5.63333 47.8445 5.2C48.5445 4.76 49.3712 4.54 50.3245 4.54C51.2712 4.54 52.0912 4.75667 52.7845 5.19C53.4779 5.62333 54.0112 6.24 54.3845 7.04C54.7579 7.84 54.9445 8.79 54.9445 9.89C54.9445 10.9967 54.7579 11.95 54.3845 12.75C54.0179 13.55 53.4879 14.1667 52.7945 14.6C52.1012 15.0267 51.2779 15.24 50.3245 15.24ZM50.3245 12.85C50.9979 12.85 51.5212 12.59 51.8945 12.07C52.2679 11.55 52.4545 10.8233 52.4545 9.89C52.4545 8.95667 52.2645 8.23 51.8845 7.71C51.5112 7.18333 50.9912 6.92 50.3245 6.92C49.6512 6.92 49.1245 7.18333 48.7445 7.71C48.3645 8.23667 48.1745 8.96667 48.1745 9.9C48.1745 10.82 48.3645 11.5433 48.7445 12.07C49.1245 12.59 49.6512 12.85 50.3245 12.85Z" fill="white"/>
<path d="M28.0375 15L31.7575 9.7L28.2875 4.78H31.1675L32.5775 6.8C32.6908 6.96 32.8042 7.12667 32.9175 7.3C33.0375 7.47333 33.1308 7.63 33.1975 7.77C33.2775 7.63 33.3708 7.47333 33.4775 7.3C33.5908 7.12 33.7008 6.95333 33.8075 6.8L35.2375 4.78H38.1275L34.6475 9.7L38.3775 15H35.4875L33.7975 12.62C33.6908 12.4667 33.5842 12.3033 33.4775 12.13C33.3708 11.95 33.2775 11.79 33.1975 11.65C33.1308 11.79 33.0375 11.95 32.9175 12.13C32.7975 12.3033 32.6842 12.4633 32.5775 12.61L30.9175 15H28.0375ZM40.5605 15V4.78H43.0605V15H40.5605ZM41.8105 3.5C41.4105 3.5 41.0638 3.35667 40.7705 3.07C40.4838 2.77667 40.3405 2.43 40.3405 2.03C40.3405 1.63 40.4838 1.29 40.7705 1.01C41.0571 0.723333 41.4038 0.58 41.8105 0.58C42.2305 0.58 42.5805 0.719999 42.8605 0.999999C43.1405 1.28 43.2805 1.62333 43.2805 2.03C43.2805 2.43667 43.1371 2.78333 42.8505 3.07C42.5705 3.35667 42.2238 3.5 41.8105 3.5Z" fill="#7C4DFF"/>
</svg>
