<svg width="24" height="24" viewBox="0 0 24 24" fill="none" xmlns="http://www.w3.org/2000/svg">
<path d="M12.0196 2.90967C8.7096 2.90967 6.0196 5.59967 6.0196 8.90967V11.7997C6.0196 12.4097 5.7596 13.3397 5.4496 13.8597L4.2996 15.7697C3.5896 16.9497 4.0796 18.2597 5.3796 18.6997C9.6896 20.1397 14.3396 20.1397 18.6496 18.6997C19.8596 18.2997 20.3896 16.8697 19.7296 15.7697L18.5796 13.8597C18.2796 13.3397 18.0196 12.4097 18.0196 11.7997V8.90967C18.0196 5.60967 15.3196 2.90967 12.0196 2.90967Z" stroke="white" stroke-width="1.5" stroke-miterlimit="10" stroke-linecap="round"/>
<path d="M13.8699 3.19994C13.5599 3.10994 13.2399 3.03994 12.9099 2.99994C11.9499 2.87994 11.0299 2.94994 10.1699 3.19994C10.4599 2.45994 11.1799 1.93994 12.0199 1.93994C12.8599 1.93994 13.5799 2.45994 13.8699 3.19994Z" stroke="white" stroke-width="1.5" stroke-miterlimit="10" stroke-linecap="round" stroke-linejoin="round"/>
<path d="M15.0195 19.0601C15.0195 20.7101 13.6695 22.0601 12.0195 22.0601C11.1995 22.0601 10.4395 21.7201 9.89953 21.1801C9.35953 20.6401 9.01953 19.8801 9.01953 19.0601" stroke="white" stroke-width="1.5" stroke-miterlimit="10"/>
<circle cx="17" cy="7" r="4" fill="#7C4DFF" stroke="#151515" stroke-width="2"/>
</svg>
